<?xml version="1.0" encoding="UTF-8"?>
<svg version="1.1" xmlns="http://www.w3.org/2000/svg" width="512" height="512">
<path d="M0 0 C1.557472 -0.0098568 1.557472 -0.0098568 3.14640808 -0.01991272 C6.57563357 -0.03958646 10.00481528 -0.05129833 13.43408203 -0.0612793 C14.61115849 -0.06535482 15.78823494 -0.06943035 17.00098038 -0.07362938 C23.23746819 -0.09447 29.47393416 -0.10877756 35.71044922 -0.11816406 C42.11651074 -0.12919347 48.52222158 -0.16355945 54.92815971 -0.20333576 C59.88366287 -0.22962917 64.83908428 -0.23786741 69.79465103 -0.24144554 C72.15387451 -0.24628264 74.51309505 -0.25781322 76.8722496 -0.27648354 C101.63621097 -0.46020484 121.07392649 3.45036529 139.69189453 20.92700195 C152.68312761 34.35730255 158.26415199 51.84943398 158.56689453 70.17700195 C158.23689453 71.16700195 157.90689453 72.15700195 157.56689453 73.17700195 C158.173479 72.87109131 158.78006348 72.56518066 159.4050293 72.25 C162.31195052 70.78577099 165.22067913 69.32516337 168.12939453 67.86450195 C169.55735352 67.14423828 169.55735352 67.14423828 171.01416016 66.40942383 C177.08043638 63.36659518 183.17747943 60.40311048 189.30801392 57.49240112 C198.99990079 52.88925241 208.62642024 48.17467647 218.20361328 43.3371582 C219.93050133 42.46603645 219.93050133 42.46603645 221.692276 41.57731628 C226.41531981 39.19327237 231.1377154 36.80802041 235.85375977 34.41015625 C239.361768 32.62698102 242.87638224 30.85704678 246.39111328 29.0871582 C247.43820969 28.5517189 248.48530609 28.0162796 249.56413269 27.46461487 C268.25603849 18.08586849 287.58222151 14.83465465 307.69873047 21.49243164 C317.53068779 25.09525552 325.26062237 30.79058787 332.56689453 38.17700195 C333.11732422 38.69391602 333.66775391 39.21083008 334.23486328 39.7434082 C345.5410734 51.35273388 350.08468839 68.76951453 349.91674805 84.46459961 C349.37697876 101.71904269 342.57138343 116.7713869 330.56689453 129.17700195 C321.88823544 136.71827732 312.38797573 141.58816031 302.06689453 146.42700195 C300.50927176 147.16937484 298.9521504 147.91280059 297.39550781 148.65722656 C286.99185392 153.61882346 276.53681793 158.47329156 266.06689453 163.29321289 C257.00924937 167.47226943 248.03253032 171.80485177 239.06689453 176.17700195 C228.98684262 181.09260436 218.88039772 185.92661262 208.69189453 190.61450195 C198.08052517 195.49793491 187.5625601 200.55087123 177.06689453 205.67700195 C164.02454433 212.04625354 150.92294945 218.25550879 137.73486328 224.31762695 C133.96375727 226.05414603 130.21510422 227.82288318 126.49267578 229.66137695 C95.2866792 245.04493522 61.3734478 254.22392737 26.48486328 254.38012695 C25.46822098 254.38582703 24.45157867 254.3915271 23.40412903 254.3973999 C21.26886004 254.40677639 19.13357706 254.41335428 16.99829102 254.41723633 C13.77285003 254.42694639 10.54804619 254.45804288 7.32275391 254.48950195 C-17.64849777 254.61827936 -38.87400578 248.80681911 -57.43310547 231.17700195 C-67.92765881 219.60967204 -75.76558094 205.67509899 -78.43310547 190.17700195 C-78.60453064 189.18856796 -78.77595581 188.20013397 -78.95257568 187.18174744 C-79.6454431 182.25222419 -79.58866627 177.32446054 -79.59423828 172.35498047 C-79.59920319 171.28725906 -79.60416809 170.21953766 -79.60928345 169.11946106 C-79.62384792 165.59827011 -79.63069918 162.07712429 -79.63623047 158.5559082 C-79.63905785 157.34665113 -79.64188522 156.13739407 -79.64479828 154.89149284 C-79.65977151 148.4864162 -79.66901149 142.08136194 -79.67333984 135.67626953 C-79.6788075 129.09654802 -79.70280503 122.51703522 -79.7313118 115.93737888 C-79.75004717 110.84719774 -79.75514965 105.75706565 -79.75667572 100.66685295 C-79.75968053 98.24344688 -79.76763452 95.82004122 -79.7808609 93.39666939 C-79.90557767 68.77956643 -77.46506471 47.86770707 -61.43310547 28.17700195 C-60.97677734 27.55825195 -60.52044922 26.93950195 -60.05029297 26.30200195 C-49.70957742 12.92718423 -32.67911489 4.52404034 -16.43310547 1.17700195 C-15.60745087 1.00517899 -14.78179626 0.83335602 -13.93112183 0.65632629 C-9.27488071 0.01829334 -4.69464402 0.01298011 0 0 Z M110.09545898 102.98144531 C109.19475174 103.18172836 108.29404449 103.38201141 107.36604309 103.58836365 C106.39720688 103.81226273 105.42837067 104.0361618 104.43017578 104.2668457 C103.4355986 104.4902211 102.44102142 104.7135965 101.41630554 104.94374084 C98.23560479 105.6599031 95.05753319 106.38706293 91.87939453 107.11450195 C89.72526158 107.60155567 87.5709665 108.0878929 85.41650391 108.57348633 C80.13139034 109.76634631 74.84839441 110.96824848 69.56689453 112.17700195 C69.56689453 112.50700195 69.56689453 112.83700195 69.56689453 113.17700195 C95.13231856 114.18810738 95.13231856 114.18810738 117.56689453 103.17700195 C114.32099889 102.09503674 113.33109963 102.24730836 110.09545898 102.98144531 Z " fill="#FEFEFE" transform="translate(150.43310546875,209.822998046875)"/>
<path d="M0 0 C1.557472 -0.0098568 1.557472 -0.0098568 3.14640808 -0.01991272 C6.57563357 -0.03958646 10.00481528 -0.05129833 13.43408203 -0.0612793 C14.61115849 -0.06535482 15.78823494 -0.06943035 17.00098038 -0.07362938 C23.23746819 -0.09447 29.47393416 -0.10877756 35.71044922 -0.11816406 C42.11651074 -0.12919347 48.52222158 -0.16355945 54.92815971 -0.20333576 C59.88366287 -0.22962917 64.83908428 -0.23786741 69.79465103 -0.24144554 C72.15387451 -0.24628264 74.51309505 -0.25781322 76.8722496 -0.27648354 C101.63621097 -0.46020484 121.07392649 3.45036529 139.69189453 20.92700195 C152.68312761 34.35730255 158.26415199 51.84943398 158.56689453 70.17700195 C158.23689453 71.16700195 157.90689453 72.15700195 157.56689453 73.17700195 C158.173479 72.87109131 158.78006348 72.56518066 159.4050293 72.25 C162.31195052 70.78577099 165.22067913 69.32516337 168.12939453 67.86450195 C169.55735352 67.14423828 169.55735352 67.14423828 171.01416016 66.40942383 C177.08043638 63.36659518 183.17747943 60.40311048 189.30801392 57.49240112 C198.99990079 52.88925241 208.62642024 48.17467647 218.20361328 43.3371582 C219.93050133 42.46603645 219.93050133 42.46603645 221.692276 41.57731628 C226.41531981 39.19327237 231.1377154 36.80802041 235.85375977 34.41015625 C239.361768 32.62698102 242.87638224 30.85704678 246.39111328 29.0871582 C247.43820969 28.5517189 248.48530609 28.0162796 249.56413269 27.46461487 C268.25603849 18.08586849 287.58222151 14.83465465 307.69873047 21.49243164 C317.53068779 25.09525552 325.26062237 30.79058787 332.56689453 38.17700195 C333.11732422 38.69391602 333.66775391 39.21083008 334.23486328 39.7434082 C345.5410734 51.35273388 350.08468839 68.76951453 349.91674805 84.46459961 C349.37697876 101.71904269 342.57138343 116.7713869 330.56689453 129.17700195 C321.88823544 136.71827732 312.38797573 141.58816031 302.06689453 146.42700195 C300.50927176 147.16937484 298.9521504 147.91280059 297.39550781 148.65722656 C286.99185392 153.61882346 276.53681793 158.47329156 266.06689453 163.29321289 C257.00924937 167.47226943 248.03253032 171.80485177 239.06689453 176.17700195 C228.98684262 181.09260436 218.88039772 185.92661262 208.69189453 190.61450195 C198.08052517 195.49793491 187.5625601 200.55087123 177.06689453 205.67700195 C164.02454433 212.04625354 150.92294945 218.25550879 137.73486328 224.31762695 C133.96375727 226.05414603 130.21510422 227.82288318 126.49267578 229.66137695 C95.2866792 245.04493522 61.3734478 254.22392737 26.48486328 254.38012695 C25.46822098 254.38582703 24.45157867 254.3915271 23.40412903 254.3973999 C21.26886004 254.40677639 19.13357706 254.41335428 16.99829102 254.41723633 C13.77285003 254.42694639 10.54804619 254.45804288 7.32275391 254.48950195 C-17.64849777 254.61827936 -38.87400578 248.80681911 -57.43310547 231.17700195 C-67.92765881 219.60967204 -75.76558094 205.67509899 -78.43310547 190.17700195 C-78.60453064 189.18856796 -78.77595581 188.20013397 -78.95257568 187.18174744 C-79.6454431 182.25222419 -79.58866627 177.32446054 -79.59423828 172.35498047 C-79.59920319 171.28725906 -79.60416809 170.21953766 -79.60928345 169.11946106 C-79.62384792 165.59827011 -79.63069918 162.07712429 -79.63623047 158.5559082 C-79.63905785 157.34665113 -79.64188522 156.13739407 -79.64479828 154.89149284 C-79.65977151 148.4864162 -79.66901149 142.08136194 -79.67333984 135.67626953 C-79.6788075 129.09654802 -79.70280503 122.51703522 -79.7313118 115.93737888 C-79.75004717 110.84719774 -79.75514965 105.75706565 -79.75667572 100.66685295 C-79.75968053 98.24344688 -79.76763452 95.82004122 -79.7808609 93.39666939 C-79.90557767 68.77956643 -77.46506471 47.86770707 -61.43310547 28.17700195 C-60.97677734 27.55825195 -60.52044922 26.93950195 -60.05029297 26.30200195 C-49.70957742 12.92718423 -32.67911489 4.52404034 -16.43310547 1.17700195 C-15.60745087 1.00517899 -14.78179626 0.83335602 -13.93112183 0.65632629 C-9.27488071 0.01829334 -4.69464402 0.01298011 0 0 Z M-43.43310547 43.17700195 C-48.71514604 50.33331498 -52.49723726 57.48959339 -54.43310547 66.17700195 C-54.69088335 67.08752068 -54.69088335 67.08752068 -54.95386887 68.01643372 C-55.47458404 70.36400205 -55.56476257 72.46319561 -55.57354736 74.8671875 C-55.57925751 75.80614365 -55.58496765 76.74509979 -55.59085083 77.71250916 C-55.59196869 78.73590897 -55.59308655 79.75930878 -55.59423828 80.8137207 C-55.59920319 81.89718277 -55.60416809 82.98064484 -55.60928345 84.09693909 C-55.62390235 87.68613316 -55.63070825 91.27528298 -55.63623047 94.86450195 C-55.64198412 97.3635254 -55.64774183 99.86254884 -55.65350342 102.36157227 C-55.66267073 106.9367837 -55.66896998 111.5119825 -55.67200017 116.08720207 C-55.67602474 122.12908646 -55.68824678 128.17081483 -55.71435547 134.21264648 C-55.74198572 140.7076773 -55.75475419 147.20257442 -55.75667572 153.69766235 C-55.75969067 156.16624057 -55.76767977 158.63481817 -55.7808609 161.10336304 C-55.7980471 164.57077226 -55.79600987 168.03769162 -55.78955078 171.50512695 C-55.79876556 172.51233292 -55.80798035 173.51953888 -55.81747437 174.55726624 C-55.72588147 190.37078856 -50.17212854 203.64033405 -39.43310547 215.17700195 C-28.14114473 225.81588288 -14.92281698 230.47470968 0.33642578 230.51293945 C1.8751812 230.52557579 1.8751812 230.52557579 3.44502258 230.53846741 C6.75664236 230.55807869 10.06772677 230.55818769 13.37939453 230.55200195 C14.50770691 230.55112579 15.63601929 230.55024963 16.79852295 230.54934692 C49.70525279 230.46473347 79.56417263 225.04197135 109.56689453 211.17700195 C110.14419312 210.91060913 110.7214917 210.64421631 111.31628418 210.36975098 C128.09428527 202.61994864 144.75708174 194.6315493 161.37664795 186.54852295 C171.48691875 181.63263118 181.6581808 176.86461071 191.86914062 172.16064453 C201.7025618 167.61464106 211.44519863 162.89372231 221.18212891 158.14550781 C230.55785998 153.57581465 239.96637306 149.09953064 249.44189453 144.73950195 C260.42396538 139.68342382 271.32042186 134.46591493 282.19189453 129.17700195 C283.31359039 128.63150192 283.31359039 128.63150192 284.45794678 128.07498169 C288.57713387 126.07044867 292.69284813 124.05901154 296.80493164 122.03994751 C298.42062805 121.24863797 300.03950737 120.46383593 301.65869141 119.6796875 C302.53847656 119.24954346 303.41826172 118.81939941 304.32470703 118.3762207 C305.0557666 118.02132568 305.78682617 117.66643066 306.54003906 117.30078125 C315.97473899 112.06976176 321.36343811 103.24436945 324.95825195 93.32519531 C327.61305975 83.95509753 326.4899761 72.4948608 322.24267578 63.85668945 C316.4146716 54.5373168 307.73045963 46.230531 297.12548828 42.64575195 C293.46879006 41.97582251 289.83613044 41.85259215 286.12939453 41.80200195 C285.42556641 41.7879834 284.72173828 41.77396484 283.99658203 41.75952148 C274.10004382 41.84870009 265.72595027 46.34391597 257.00439453 50.61450195 C255.79855322 51.20029952 254.59265875 51.78598766 253.38671875 52.37158203 C244.23208232 56.83247724 235.12400679 61.38727604 226.01611328 65.94262695 C225.41359426 66.24396608 224.81107525 66.54530521 224.19029808 66.85577583 C217.46822903 70.21829871 210.74895077 73.58629747 204.03344727 76.96191406 C191.23683324 83.38776982 178.40124438 89.71100132 165.46313477 95.84741211 C151.39220826 101.81166944 151.39220826 101.81166944 140.79736328 112.23950195 C133.8091558 123.24315564 119.535194 130.86397839 107.22477722 134.03897095 C96.07251479 136.29177913 85.28315776 136.61779472 73.93017578 136.57543945 C71.99203889 136.57746589 70.05390275 136.58038205 68.11576843 136.58413696 C64.08939221 136.5885219 60.06321775 136.58224646 56.03686523 136.56811523 C50.88104405 136.55089808 45.72568719 136.56096728 40.56988239 136.57883263 C36.58331285 136.58966668 32.59685383 136.58622804 28.61028099 136.57844925 C26.7081007 136.57645275 24.80591029 136.57888714 22.90374184 136.58588791 C20.25513576 136.59351012 17.60728966 136.58189332 14.95874023 136.56518555 C14.17898834 136.57125824 13.39923645 136.57733093 12.59585571 136.58358765 C8.07718809 136.53080424 5.1394226 136.0058232 1.56689453 133.17700195 C-1.2503578 128.95112346 -1.2326893 125.14075507 -0.43310547 120.17700195 C1.75712371 117.35275907 3.3970666 115.76191592 6.56689453 114.17700195 C9.30516025 114.07520175 12.01886653 114.0333566 14.75756836 114.03515625 C16.0287854 114.02994461 16.0287854 114.02994461 17.32568359 114.02462769 C19.17159682 114.01726266 21.01751894 114.01192127 22.86344337 114.00833702 C25.79507718 114.00116899 28.72654384 113.9854955 31.65812683 113.96699524 C39.99577403 113.91457281 48.3333345 113.86664617 56.67114258 113.85107422 C61.7700107 113.84092702 66.86846501 113.81142321 71.96716881 113.76975441 C73.90177958 113.75752437 75.83644906 113.75230837 77.77109718 113.75455284 C92.67391177 113.76757557 105.4317133 112.81376352 117.56689453 103.17700195 C118.35064453 102.57887695 119.13439453 101.98075195 119.94189453 101.36450195 C125.67102378 96.69073862 128.89026134 92.04177884 131.56689453 85.17700195 C131.88529297 84.39583008 132.20369141 83.6146582 132.53173828 82.80981445 C136.52754582 71.57736008 135.48502229 59.91440509 130.56689453 49.17700195 C124.54953481 37.94341029 116.24506961 31.06626458 104.56689453 26.17700195 C103.73263443 25.82769623 102.89837433 25.4783905 102.03883362 25.11849976 C97.34507412 23.84567666 92.92872688 23.88198322 88.08618164 23.88647461 C86.52148132 23.87639877 86.52148132 23.87639877 84.9251709 23.86611938 C81.48147799 23.84714596 78.0379802 23.8432149 74.59423828 23.84106445 C72.19014914 23.83463401 69.78606078 23.82790546 67.38197327 23.82089233 C62.34081205 23.8089197 57.29971935 23.8052113 52.25854492 23.80639648 C45.82525863 23.80659919 39.39241649 23.77934646 32.95923519 23.74485207 C27.99097207 23.72251583 23.02281448 23.71856108 18.0545063 23.71961594 C15.68443846 23.7172682 13.31436734 23.70849178 10.94434929 23.6929512 C-10.80025303 23.56376701 -28.00699967 26.3164948 -43.43310547 43.17700195 Z " fill="#010101" transform="translate(150.43310546875,209.822998046875)"/>
<path d="M0 0 C2.42687199 1.73504386 2.42687199 1.73504386 6.3046875 1.390625 C8.34740877 0.22628533 8.34740877 0.22628533 10.3671875 -1.359375 C22.10271294 -9.56454403 36.52043816 -11.31285717 50.4453125 -9.11328125 C65.12928879 -5.40033296 77.26382634 3.48023469 85.3046875 16.390625 C92.86271895 31.76189416 93.80111848 49.30701564 88.6953125 65.703125 C84.33157785 77.27437642 79.18279862 87.77264835 71.3046875 97.390625 C70.86157227 97.9376709 70.41845703 98.4847168 69.96191406 99.04833984 C68.52420288 100.81726435 67.07440964 102.57524524 65.6171875 104.328125 C65.16561279 104.87243164 64.71403809 105.41673828 64.2487793 105.97753906 C59.79667626 111.21453864 56.22615835 114.88972161 49.2890625 115.515625 C46.26685277 115.32524958 43.96924437 113.75250962 41.3046875 112.390625 C36.32375054 113.61385863 32.72243016 117.05996959 28.8671875 120.265625 C24.47298168 123.8885309 20.10498096 127.31903073 15.3046875 130.390625 C15.4696875 130.90625 15.6346875 131.421875 15.8046875 131.953125 C16.81116883 136.85972146 16.93370404 140.24104304 14.4921875 144.703125 C12.33375147 147.35491783 10.70544907 149.05488254 7.31640625 149.8671875 C-6.81570676 150.76974262 -20.2387084 137.69122825 -30.6953125 129.390625 C-31.55189453 128.71193359 -31.55189453 128.71193359 -32.42578125 128.01953125 C-56.40263632 108.82665676 -78.91423553 84.00047915 -83.375 52.41015625 C-84.91628806 37.88069683 -82.66877515 23.29972161 -73.6953125 11.390625 C-73.10878906 10.61203125 -72.52226562 9.8334375 -71.91796875 9.03125 C-54.34792835 -12.38335957 -22.20616564 -16.06403472 0 0 Z " fill="#000000" transform="translate(337.6953125,57.609375)"/>
<path d="M0 0 C4.12225627 2.78973109 7.34556131 6.1208661 10.59765625 9.87109375 C11.22542969 10.59425781 11.85320312 11.31742188 12.5 12.0625 C13.08136719 12.74828125 13.66273438 13.4340625 14.26171875 14.140625 C16.55172782 16.6094509 17.6469312 16.79657992 21.0625 17.125 C25.55705244 16.75045396 27.38681545 15.70530029 30.8125 12.8125 C32.15581654 10.81919158 33.48844012 8.81865134 34.8125 6.8125 C39.94053298 1.49119945 45.30527143 -1.79780794 52.71484375 -2.62109375 C54.05969659 -2.64428087 55.40509798 -2.64513326 56.75 -2.625 C57.45366699 -2.61815186 58.15733398 -2.61130371 58.88232422 -2.60424805 C64.4397314 -2.43222999 68.37533107 -1.49639126 72.8125 1.8125 C73.864375 2.555 74.91625 3.2975 76 4.0625 C82.43109799 10.3506847 85.82138921 17.36395061 86.1875 26.375 C85.76267847 46.64148573 73.15508266 64.13597399 59.625 78.1875 C57.26645009 80.81624179 56.38502151 82.44644612 56.3125 86 C56.70386141 88.98413076 57.20264729 91.86996068 57.8125 94.8125 C49.23386505 101.60180429 40.5996105 108.29458836 31.8125 114.8125 C16.46972603 105.14776049 2.0759994 95.22981176 -11.1875 82.8125 C-11.66477539 82.36922363 -12.14205078 81.92594727 -12.63378906 81.46923828 C-28.15934882 66.93994408 -41.89220782 48.71854228 -42.625 26.6875 C-42.38662504 17.58952243 -39.46239836 11.19397196 -33.20703125 4.609375 C-24.41680781 -3.21171355 -10.68386571 -5.6277888 0 0 Z " fill="#299698" transform="translate(320.1875,74.1875)"/>
<path d="M0 0 C2.70552388 2.19823815 4.44778333 3.89556667 6 7 C6.1086277 9.57862503 6.15662388 12.13089383 6.16062927 14.71025085 C6.168261 15.91822074 6.168261 15.91822074 6.17604691 17.15059406 C6.1918136 19.86431028 6.20030757 22.5779998 6.20874023 25.29174805 C6.21827533 27.23140128 6.22816633 29.17105278 6.23838806 31.11070251 C6.26981407 37.49435396 6.29004495 43.8780186 6.30859375 50.26171875 C6.31189107 51.34709309 6.31518839 52.43246743 6.31858563 53.5507319 C6.34936903 63.78366277 6.37608197 74.01659653 6.39300442 84.24956036 C6.41491611 97.34697695 6.45689205 110.44398382 6.52644199 123.54123658 C6.57366257 132.74555417 6.59793545 141.94976115 6.6052013 151.15419608 C6.61016068 156.65373755 6.62526896 162.15281758 6.6649456 167.6522274 C6.70179049 172.82747359 6.71022852 178.00199439 6.69693947 183.17734718 C6.69699345 185.07564316 6.70730464 186.9739711 6.7286911 188.87214661 C6.75636378 191.46724966 6.74686995 194.05970562 6.72825623 196.65483093 C6.74505115 197.40348457 6.76184608 198.1521382 6.77914995 198.92347831 C6.68528707 204.17149759 5.07140232 206.83977162 1.51921231 210.66371566 C-1.18543844 213.0427001 -3.43324365 213.08710549 -6.890625 213.203125 C-11.11673372 212.79616638 -13.20738636 210.79506616 -16.10539341 207.88809204 C-18.5232355 204.20239257 -18.55561215 201.17761675 -18.50120544 196.91552734 C-18.50673984 196.10623968 -18.51227424 195.29695202 -18.51797634 194.46314049 C-18.53157997 191.75375961 -18.51661548 189.04530038 -18.50170898 186.3359375 C-18.50549227 184.39259449 -18.51099239 182.44925417 -18.51808167 180.50592041 C-18.53205228 175.22907505 -18.52085513 169.95255516 -18.50437045 164.67572784 C-18.49052801 159.15539794 -18.49697911 153.63508709 -18.50050354 148.11474609 C-18.5032063 138.84402212 -18.48972438 129.57342756 -18.46655273 120.30273438 C-18.43994263 109.58209796 -18.43819568 98.86167795 -18.4499411 88.14101982 C-18.46071757 77.83122868 -18.45453282 67.52151588 -18.44038582 57.21173096 C-18.4346249 52.82267405 -18.43470955 48.43367445 -18.43945122 44.0446167 C-18.44422095 38.87683613 -18.43411932 33.70929276 -18.41249657 28.54155731 C-18.4069285 26.64406891 -18.40646358 24.74655771 -18.41144943 22.84906769 C-18.41739829 20.26060548 -18.40490497 17.67286942 -18.38768005 15.08447266 C-18.3936901 14.3320397 -18.39970014 13.57960674 -18.40589231 12.80437279 C-18.35205592 8.36102763 -17.74104944 5.53014356 -15 2 C-10.13740399 -1.47328286 -5.59859624 -1.72185188 0 0 Z " fill="#000000" transform="translate(30,231)"/>
</svg>
