<?xml version="1.0" standalone="no"?>
<!DOCTYPE svg PUBLIC "-//W3C//DTD SVG 20010904//EN"
 "http://www.w3.org/TR/2001/REC-SVG-20010904/DTD/svg10.dtd">
<svg version="1.0" xmlns="http://www.w3.org/2000/svg"
 width="300.000000pt" height="240.000000pt" viewBox="0 0 300.000000 240.000000"
 preserveAspectRatio="xMidYMid meet">

<g transform="translate(0.000000,240.000000) scale(0.100000,-0.100000)"
fill="#000000" stroke="none">
<path d="M1054 2066 c-59 -27 -116 -90 -132 -145 -8 -26 -12 -163 -12 -434 l0
-395 28 -53 c30 -59 95 -111 160 -129 49 -13 755 -13 804 0 69 19 130 70 163
134 l30 60 0 390 c0 386 -1 392 -23 441 -30 65 -66 102 -127 131 -50 24 -51
24 -445 24 -394 0 -395 0 -446 -24z m250 -352 c3 -9 6 -41 6 -72 0 -56 0 -57
67 -124 l67 -68 61 0 c33 0 66 -4 74 -9 23 -15 27 -125 7 -156 -15 -23 -23
-25 -84 -25 -37 0 -74 4 -81 9 -10 7 -16 33 -19 78 -4 68 -4 68 -64 129 l-60
62 -70 4 c-46 2 -72 9 -78 18 -14 22 -12 144 2 158 7 7 42 12 89 12 61 0 78
-3 83 -16z m286 -10 c6 -14 10 -49 10 -77 0 -50 2 -54 62 -114 l62 -63 66 0
c38 0 71 -5 78 -12 16 -16 16 -150 0 -166 -16 -16 -150 -16 -166 0 -7 7 -12
40 -12 77 l0 65 -62 63 -62 63 -63 0 c-84 0 -103 18 -103 96 0 88 7 94 101 94
76 0 80 -1 89 -26z m278 14 c7 -7 12 -40 12 -77 0 -86 -14 -101 -92 -101 -90
0 -98 8 -98 90 0 101 -1 100 89 100 47 0 82 -5 89 -12z"/>
<path d="M550 710 c0 -82 3 -100 15 -100 10 0 15 10 15 33 l1 32 27 -33 c15
-18 33 -32 40 -32 17 0 15 7 -9 47 l-21 34 21 23 c41 43 13 52 -31 9 l-28 -27
0 57 c0 44 -3 57 -15 57 -12 0 -15 -18 -15 -100z"/>
<path d="M930 791 c0 -26 10 -51 21 -51 5 0 9 16 9 35 0 24 -5 35 -15 35 -8 0
-15 -9 -15 -19z"/>
<path d="M1800 710 c0 -82 3 -100 15 -100 12 0 15 18 15 100 0 82 -3 100 -15
100 -12 0 -15 -18 -15 -100z"/>
<path d="M240 701 l0 -91 43 0 c23 0 53 7 65 16 25 17 29 56 7 74 -11 9 -12
16 -2 31 20 33 -2 54 -62 57 l-51 3 0 -90z m84 53 c8 -21 -1 -34 -25 -34 -14
0 -19 7 -19 25 0 29 34 36 44 9z m9 -76 c7 -23 -4 -38 -29 -38 -19 0 -24 5
-24 25 0 20 5 25 24 25 13 0 26 -6 29 -12z"/>
<path d="M1190 699 l0 -92 52 5 c84 8 119 67 83 137 -17 34 -33 41 -91 41
l-44 0 0 -91z m88 55 c15 -10 22 -25 22 -49 0 -40 -22 -65 -56 -65 -23 0 -24
3 -24 65 0 71 12 82 58 49z"/>
<path d="M2722 752 c-8 -17 -9 -28 -2 -30 5 -2 10 -16 10 -32 0 -50 17 -80 45
-80 16 0 25 6 25 15 0 8 -7 15 -15 15 -11 0 -15 11 -15 40 0 29 4 40 15 40 8
0 15 7 15 15 0 8 -7 15 -15 15 -8 0 -15 7 -15 15 0 25 -34 16 -48 -13z"/>
<path d="M414 735 c-20 -15 -18 -16 30 -18 36 -2 48 -27 14 -27 -36 0 -60 -22
-56 -51 3 -22 8 -24 56 -26 l52 -1 0 58 c0 48 -4 61 -19 70 -27 14 -54 13 -77
-5z m66 -79 c0 -15 -37 -32 -47 -22 -3 3 -3 12 0 21 8 19 47 20 47 1z"/>
<path d="M696 731 c-24 -27 -24 -91 1 -108 22 -17 85 -13 91 6 3 9 -2 11 -17
6 -27 -8 -61 3 -61 20 0 9 15 15 43 17 38 3 42 5 39 28 -5 48 -64 67 -96 31z
m62 -24 c3 -12 -4 -17 -22 -17 -27 0 -37 24 -13 33 19 8 32 2 35 -16z"/>
<path d="M830 680 c0 -56 3 -70 15 -70 11 0 15 12 15 45 0 39 4 47 25 57 26
12 34 38 12 38 -7 0 -18 -5 -25 -12 -9 -9 -12 -9 -12 0 0 7 -7 12 -15 12 -12
0 -15 -14 -15 -70z"/>
<path d="M1012 738 c-21 -21 -14 -52 19 -70 36 -21 29 -43 -12 -34 -22 4 -27
2 -22 -9 7 -19 67 -20 83 0 17 21 9 48 -20 62 -32 16 -33 39 -2 35 15 -1 22 2
20 10 -6 18 -50 22 -66 6z"/>
<path d="M1385 730 c-26 -28 -25 -88 1 -107 23 -17 86 -13 92 6 3 10 -2 12
-21 7 -31 -7 -57 1 -57 20 0 10 12 14 40 14 38 0 40 2 40 30 0 49 -61 68 -95
30z m63 -23 c3 -12 -4 -17 -22 -17 -27 0 -37 24 -13 33 19 8 32 2 35 -16z"/>
<path d="M1502 739 c3 -8 14 -40 24 -71 14 -48 22 -58 40 -58 18 0 26 11 43
62 25 73 25 78 7 78 -8 0 -20 -17 -26 -37 -6 -21 -14 -45 -17 -53 -3 -9 -12 5
-23 35 -10 32 -23 51 -35 54 -12 2 -16 -2 -13 -10z"/>
<path d="M1672 734 c-27 -19 -31 -84 -6 -109 19 -19 85 -17 92 3 3 9 -3 11
-22 6 -26 -6 -56 9 -56 27 0 5 20 9 45 9 38 0 45 3 45 20 0 25 -34 60 -58 60
-10 0 -28 -7 -40 -16z m56 -27 c3 -12 -4 -17 -22 -17 -28 0 -33 9 -14 28 15
15 32 10 36 -11z"/>
<path d="M1892 733 c-48 -41 -23 -123 37 -123 39 0 61 20 67 61 11 65 -55 103
-104 62z m66 -49 c4 -38 -20 -63 -43 -44 -15 13 -21 61 -8 74 4 4 16 6 28 4
14 -2 21 -12 23 -34z"/>
<path d="M2030 655 c0 -78 3 -95 15 -95 10 0 15 10 15 29 0 28 2 29 35 24 32
-5 36 -3 49 28 28 66 -8 124 -60 100 -15 -6 -24 -7 -24 -1 0 6 -7 10 -15 10
-12 0 -15 -17 -15 -95z m85 25 c0 -31 -3 -35 -25 -35 -29 0 -40 36 -19 61 21
26 44 12 44 -26z"/>
<path d="M2190 680 c0 -56 3 -70 15 -70 11 0 15 12 15 49 0 35 4 51 16 55 26
10 34 -3 34 -55 0 -37 4 -49 15 -49 11 0 15 11 15 43 0 43 13 67 37 67 9 0 13
-17 13 -55 0 -48 2 -55 20 -55 18 0 20 7 20 54 0 73 -25 100 -70 76 -14 -8
-25 -7 -40 2 -16 10 -24 10 -40 1 -12 -8 -21 -9 -25 -3 -16 26 -25 4 -25 -60z"/>
<path d="M2440 730 c-24 -24 -27 -82 -4 -104 21 -22 94 -22 94 0 0 12 -7 14
-29 9 -24 -5 -32 -2 -41 14 -10 20 -8 21 35 21 41 0 45 2 45 23 0 51 -63 74
-100 37z m58 -12 c18 -18 14 -28 -11 -28 -30 0 -40 10 -26 27 14 16 22 16 37
1z"/>
<path d="M2577 743 c-4 -3 -7 -35 -7 -70 0 -56 2 -63 19 -63 17 0 20 8 23 53
3 44 6 52 23 52 17 0 20 -8 23 -52 2 -38 7 -53 18 -53 11 0 14 14 14 59 0 71
-16 91 -61 74 -16 -6 -29 -7 -29 -2 0 11 -14 12 -23 2z"/>
</g>
</svg>
